<svg id="König_weiss" data-name="König weiss" xmlns="http://www.w3.org/2000/svg" viewBox="0 0 39.12 77.57"><defs><style>.cls-1{fill:none;stroke:#000;stroke-miterlimit:10;stroke-width:2px;}</style></defs><title>König_weiss</title><path d="M698.92,618.69c-.2,1.49-.44,3.28-.64,4.84l-.35,2.66c-1.43,10.5,1.59,19,9,25.24v.67H672.13v-.67c7.39-6.25,10.41-14.73,9-25.24-.12-.85-.31-2.55-.51-4.35-.12-1-.24-2.11-.35-3.05l9.31.07,9.36-.16m2.3-2-11.69.2L678,616.76c.3,2.12.89,7.85,1.15,9.7,1.59,11.7-2.71,19-9,24v3.62h38.76v-3.62c-6.28-5-10.59-12.32-9-24,.25-1.86,1-7.69,1.31-9.81Z" transform="translate(-669.96 -586.43)"/><path d="M707.07,658.35V662H672v-3.65h35.12m2-2H670V664h39.12v-7.65Z" transform="translate(-669.96 -586.43)"/><polygon class="cls-1" points="33.61 11.29 31.4 27.22 7.72 27.22 5.51 11.29 17.55 11.29 17.55 7.66 14.25 7.66 14.25 3.64 17.55 3.64 17.55 1 21.57 1 21.57 3.64 24.87 3.64 24.87 7.66 21.57 7.66 21.57 11.29 33.61 11.29"/></svg>