<svg id="Ebene_1" data-name="Ebene 1" xmlns="http://www.w3.org/2000/svg" viewBox="0 0 769 769"><defs><style>.cls-1{fill:#fff;}.cls-2{fill:#999;}.cls-3{fill:none;stroke:#000;stroke-miterlimit:10;}</style></defs><title>schachbrett_solo</title><rect class="cls-1" x="672.5" y="672.5" width="96" height="96"/><rect class="cls-2" x="672.5" y="576.5" width="96" height="96"/><rect class="cls-1" x="672.5" y="480.5" width="96" height="96"/><rect class="cls-2" x="672.5" y="384.5" width="96" height="96"/><rect class="cls-1" x="672.5" y="288.5" width="96" height="96"/><rect class="cls-2" x="672.5" y="192.5" width="96" height="96"/><rect class="cls-1" x="672.5" y="96.5" width="96" height="96"/><rect class="cls-2" x="672.5" y="0.5" width="96" height="96"/><rect class="cls-2" x="576.5" y="672.5" width="96" height="96"/><rect class="cls-1" x="576.5" y="576.5" width="96" height="96"/><rect class="cls-2" x="576.5" y="480.5" width="96" height="96"/><rect class="cls-1" x="576.5" y="384.5" width="96" height="96"/><rect class="cls-2" x="576.5" y="288.5" width="96" height="96"/><rect class="cls-1" x="576.5" y="192.5" width="96" height="96"/><rect class="cls-2" x="576.5" y="96.5" width="96" height="96"/><rect class="cls-1" x="576.5" y="0.5" width="96" height="96"/><rect class="cls-1" x="480.5" y="672.5" width="96" height="96"/><rect class="cls-2" x="480.5" y="576.5" width="96" height="96"/><rect class="cls-1" x="480.5" y="480.5" width="96" height="96"/><rect class="cls-2" x="480.5" y="384.5" width="96" height="96"/><rect class="cls-1" x="480.5" y="288.5" width="96" height="96"/><rect class="cls-2" x="480.5" y="192.5" width="96" height="96"/><rect class="cls-1" x="480.5" y="96.5" width="96" height="96"/><rect class="cls-2" x="480.5" y="0.5" width="96" height="96"/><rect class="cls-2" x="384.5" y="672.5" width="96" height="96"/><rect class="cls-1" x="384.5" y="576.5" width="96" height="96"/><rect class="cls-2" x="384.5" y="480.5" width="96" height="96"/><rect class="cls-1" x="384.5" y="384.5" width="96" height="96"/><rect class="cls-2" x="384.5" y="288.5" width="96" height="96"/><rect class="cls-1" x="384.5" y="192.5" width="96" height="96"/><rect class="cls-2" x="384.5" y="96.5" width="96" height="96"/><rect class="cls-1" x="384.5" y="0.5" width="96" height="96"/><rect class="cls-1" x="288.5" y="672.5" width="96" height="96"/><rect class="cls-2" x="288.5" y="576.5" width="96" height="96"/><rect class="cls-1" x="288.5" y="480.5" width="96" height="96"/><rect class="cls-2" x="288.5" y="384.5" width="96" height="96"/><rect class="cls-1" x="288.5" y="288.5" width="96" height="96"/><rect class="cls-2" x="288.5" y="192.5" width="96" height="96"/><rect class="cls-1" x="288.5" y="96.5" width="96" height="96"/><rect class="cls-2" x="288.5" y="0.5" width="96" height="96"/><rect class="cls-2" x="192.5" y="672.5" width="96" height="96"/><rect class="cls-1" x="192.5" y="576.5" width="96" height="96"/><rect class="cls-2" x="192.5" y="480.5" width="96" height="96"/><rect class="cls-1" x="192.5" y="384.5" width="96" height="96"/><rect class="cls-2" x="192.5" y="288.5" width="96" height="96"/><rect class="cls-1" x="192.5" y="192.5" width="96" height="96"/><rect class="cls-2" x="192.5" y="96.5" width="96" height="96"/><rect class="cls-1" x="192.5" y="0.5" width="96" height="96"/><rect class="cls-1" x="96.5" y="672.5" width="96" height="96"/><rect class="cls-2" x="96.5" y="576.5" width="96" height="96"/><rect class="cls-1" x="96.5" y="480.5" width="96" height="96"/><rect class="cls-2" x="96.5" y="384.5" width="96" height="96"/><rect class="cls-1" x="96.5" y="288.5" width="96" height="96"/><rect class="cls-2" x="96.5" y="192.5" width="96" height="96"/><rect class="cls-1" x="96.5" y="96.5" width="96" height="96"/><rect class="cls-2" x="96.5" y="0.5" width="96" height="96"/><rect class="cls-2" x="0.5" y="672.5" width="96" height="96"/><rect class="cls-1" x="0.5" y="576.5" width="96" height="96"/><rect class="cls-2" x="0.5" y="480.5" width="96" height="96"/><rect class="cls-1" x="0.5" y="384.5" width="96" height="96"/><rect class="cls-2" x="0.5" y="288.5" width="96" height="96"/><rect class="cls-1" x="0.5" y="192.5" width="96" height="96"/><rect class="cls-2" x="0.5" y="96.5" width="96" height="96"/><rect class="cls-1" x="0.5" y="0.5" width="96" height="96"/><polyline class="cls-3" points="0.5 96.5 0.5 0.5 96.5 0.5"/><polyline class="cls-3" points="96.5 96.5 96.5 0.5 192.5 0.5"/><polyline class="cls-3" points="192.5 96.5 192.5 0.5 288.5 0.5"/><polyline class="cls-3" points="288.5 96.5 288.5 0.5 384.5 0.5"/><polyline class="cls-3" points="384.5 96.5 384.5 0.5 480.5 0.5"/><polyline class="cls-3" points="480.5 96.5 480.5 0.5 576.5 0.5"/><polyline class="cls-3" points="576.5 96.5 576.5 0.5 672.5 0.5"/><polyline class="cls-3" points="672.5 96.5 672.5 0.5 768.5 0.5 768.5 96.5"/><polyline class="cls-3" points="0.5 192.5 0.5 96.5 96.5 96.5"/><polyline class="cls-3" points="96.5 192.5 96.5 96.5 192.5 96.5"/><polyline class="cls-3" points="192.5 192.5 192.5 96.5 288.5 96.5"/><polyline class="cls-3" points="288.5 192.5 288.5 96.5 384.5 96.5"/><polyline class="cls-3" points="384.5 192.5 384.5 96.5 480.5 96.5"/><polyline class="cls-3" points="480.5 192.5 480.5 96.5 576.5 96.5"/><polyline class="cls-3" points="576.5 192.5 576.5 96.5 672.5 96.5"/><polyline class="cls-3" points="672.5 192.5 672.5 96.5 768.5 96.5 768.5 192.5"/><polyline class="cls-3" points="0.5 288.5 0.5 192.5 96.5 192.5"/><polyline class="cls-3" points="96.5 288.5 96.5 192.5 192.5 192.5"/><polyline class="cls-3" points="192.5 288.5 192.5 192.5 288.5 192.5"/><polyline class="cls-3" points="288.5 288.5 288.5 192.5 384.5 192.5"/><polyline class="cls-3" points="384.5 288.5 384.5 192.5 480.5 192.5"/><polyline class="cls-3" points="480.5 288.5 480.5 192.5 576.5 192.5"/><polyline class="cls-3" points="576.5 288.5 576.5 192.5 672.5 192.5"/><polyline class="cls-3" points="672.5 288.5 672.5 192.5 768.5 192.5 768.5 288.5"/><polyline class="cls-3" points="0.5 384.5 0.5 288.5 96.5 288.5"/><polyline class="cls-3" points="96.5 384.5 96.5 288.5 192.5 288.5"/><polyline class="cls-3" points="192.5 384.5 192.5 288.5 288.5 288.5"/><polyline class="cls-3" points="288.5 384.5 288.5 288.5 384.5 288.5"/><polyline class="cls-3" points="384.5 384.5 384.5 288.5 480.5 288.5"/><polyline class="cls-3" points="480.5 384.5 480.5 288.5 576.5 288.5"/><polyline class="cls-3" points="576.5 384.5 576.5 288.5 672.5 288.5"/><polyline class="cls-3" points="672.5 384.5 672.5 288.5 768.5 288.5 768.5 384.5"/><polyline class="cls-3" points="0.5 480.5 0.5 384.5 96.5 384.5"/><polyline class="cls-3" points="96.5 480.5 96.5 384.5 192.5 384.5"/><polyline class="cls-3" points="192.5 480.5 192.5 384.5 288.5 384.5"/><polyline class="cls-3" points="288.5 480.5 288.5 384.5 384.5 384.5"/><polyline class="cls-3" points="384.5 480.5 384.5 384.5 480.5 384.5"/><polyline class="cls-3" points="480.5 480.5 480.5 384.5 576.5 384.5"/><polyline class="cls-3" points="576.5 480.5 576.5 384.5 672.5 384.5"/><polyline class="cls-3" points="672.5 480.5 672.5 384.5 768.5 384.5 768.5 480.5"/><polyline class="cls-3" points="0.5 576.5 0.5 480.5 96.5 480.5"/><polyline class="cls-3" points="96.5 576.5 96.5 480.5 192.5 480.5"/><polyline class="cls-3" points="192.5 576.5 192.5 480.5 288.5 480.5"/><polyline class="cls-3" points="288.5 576.5 288.5 480.5 384.5 480.5"/><polyline class="cls-3" points="384.5 576.5 384.5 480.5 480.5 480.5"/><polyline class="cls-3" points="480.5 576.5 480.5 480.5 576.5 480.5"/><polyline class="cls-3" points="576.5 576.5 576.5 480.5 672.5 480.5"/><polyline class="cls-3" points="672.5 576.5 672.5 480.5 768.5 480.5 768.5 576.5"/><polyline class="cls-3" points="0.5 672.5 0.5 576.5 96.5 576.5"/><polyline class="cls-3" points="96.5 672.5 96.5 576.5 192.5 576.5"/><polyline class="cls-3" points="192.5 672.5 192.5 576.5 288.5 576.5"/><polyline class="cls-3" points="288.5 672.5 288.5 576.5 384.5 576.5"/><polyline class="cls-3" points="384.5 672.5 384.5 576.5 480.5 576.5"/><polyline class="cls-3" points="480.5 672.5 480.5 576.5 576.5 576.5"/><polyline class="cls-3" points="576.5 672.5 576.5 576.5 672.5 576.5"/><polyline class="cls-3" points="672.5 672.5 672.5 576.5 768.5 576.5 768.5 672.5"/><polyline class="cls-3" points="96.5 768.5 0.5 768.5 0.5 672.5 96.5 672.5"/><polyline class="cls-3" points="192.5 768.5 96.5 768.5 96.5 672.5 192.5 672.5"/><polyline class="cls-3" points="288.5 768.5 192.5 768.5 192.5 672.5 288.5 672.5"/><polyline class="cls-3" points="384.5 768.5 288.5 768.5 288.5 672.5 384.5 672.5"/><polyline class="cls-3" points="480.5 768.5 384.5 768.5 384.5 672.5 480.5 672.5"/><polyline class="cls-3" points="576.5 768.5 480.5 768.5 480.5 672.5 576.5 672.5"/><polyline class="cls-3" points="672.5 768.5 576.5 768.5 576.5 672.5 672.5 672.5"/><rect class="cls-3" x="672.5" y="672.5" width="96" height="96"/></svg>