<svg id="Turm_weiss" data-name="Turm weiss" xmlns="http://www.w3.org/2000/svg" viewBox="0 0 37.6 60"><title>Turm_weiss</title><path d="M706.47,650.38v2.41H673v-2.41h33.49m2.06-2.06h-37.6v6.53h37.6v-6.53Z" transform="translate(-670.93 -594.85)"/><path d="M679.68,606l10.08.08,10-.08c-.24,1-.54,2.12-.82,3.17a50.21,50.21,0,0,0-1.3,5.56c-1.38,12,1.44,21.32,8.63,28.46v1.19H673.16v-1.19c7.19-7.13,10-16.45,8.64-28.46a51.2,51.2,0,0,0-1.29-5.51c-.28-1.07-.59-2.21-.83-3.22m22.63-2.08-12.57.1-12.58-.1c.29,2.41,2.35,8.93,2.59,11,1.53,13.32-2.6,21.66-8.65,27.35v4.12h37.26v-4.12c-6-5.69-10.18-14-8.64-27.35.24-2.11,2.3-8.64,2.59-11Z" transform="translate(-670.93 -594.85)"/><path d="M680.38,596.7V600h-1.44V596.7h1.44m1.85-1.85h-5.14v7h5.14v-7Z" transform="translate(-670.93 -594.85)"/><path d="M687.09,596.7V600h-1.44V596.7h1.44m1.85-1.85H683.8v7h5.14v-7Z" transform="translate(-670.93 -594.85)"/><path d="M693.81,596.7V600h-1.44V596.7h1.44m1.85-1.85h-5.14v7h5.14v-7Z" transform="translate(-670.93 -594.85)"/><path d="M700.52,596.7V600h-1.44V596.7h1.44m1.85-1.85h-5.14v7h5.14v-7Z" transform="translate(-670.93 -594.85)"/></svg>