<svg id="Ebene_1" data-name="Ebene 1" xmlns="http://www.w3.org/2000/svg" viewBox="0 0 613.06 613.06"><defs><style>.cls-1{fill:#999;}.cls-2,.cls-3{fill:none;stroke:#000;}.cls-2{stroke-linecap:round;stroke-linejoin:round;stroke-width:1.06px;}.cls-3{stroke-miterlimit:10;stroke-width:4.25px;}</style></defs><title>zugmöglichkeiten turm</title><g id="turm"><rect class="cls-1" x="408.53" y="204.53" width="204" height="204"/><rect class="cls-1" x="204.53" y="408.53" width="204" height="204"/><rect class="cls-1" x="204.53" y="0.53" width="204" height="204"/><rect class="cls-1" x="0.53" y="204.53" width="204" height="204"/><polyline class="cls-2" points="0.53 204.53 0.53 0.53 204.53 0.53"/><polyline class="cls-2" points="204.53 204.53 204.53 0.53 408.53 0.53"/><polyline class="cls-2" points="408.53 204.53 408.53 0.53 612.53 0.53 612.53 204.53"/><polyline class="cls-2" points="0.53 408.53 0.53 204.53 204.53 204.53"/><polyline class="cls-2" points="204.53 408.53 204.53 204.53 408.53 204.53"/><polyline class="cls-2" points="408.53 408.53 408.53 204.53 612.53 204.53 612.53 408.53"/><polyline class="cls-2" points="204.53 612.53 0.53 612.53 0.53 408.53 204.53 408.53"/><polyline class="cls-2" points="408.53 612.53 204.53 612.53 204.53 408.53 408.53 408.53"/><rect class="cls-2" x="408.53" y="408.53" width="204" height="204"/><rect x="266.69" y="355.35" width="79.91" height="13.87"/><path d="M936.7,512v8.75H857.52V512c12.86-12.08,21.64-29.82,18.39-58.12-.53-4.49-4.9-18.35-5.51-23.48l26.73.21,26.72-.21c-.62,5.12-5,19-5.51,23.48C915.08,482.16,923.86,499.9,936.7,512Z" transform="translate(-590.47 -169.47)"/><rect x="279.78" y="241.72" width="10.93" height="14.94"/><rect x="294.05" y="241.72" width="10.93" height="14.94"/><rect x="308.31" y="241.72" width="10.93" height="14.94"/><rect x="322.58" y="241.72" width="10.93" height="14.94"/><line class="cls-3" x1="307.59" y1="139.12" x2="307.59" y2="220.47"/><polygon points="295.25 147.54 307.58 101.47 319.94 147.54 295.25 147.54"/><line class="cls-3" x1="307.59" y1="471.82" x2="307.59" y2="390.47"/><polygon points="319.94 463.39 307.6 509.47 295.25 463.39 319.94 463.39"/><line class="cls-3" x1="141.25" y1="305.47" x2="222.59" y2="305.47"/><polygon points="149.67 317.82 103.59 305.48 149.67 293.12 149.67 317.82"/><line class="cls-3" x1="473.94" y1="305.47" x2="392.59" y2="305.47"/><polygon points="465.52 293.12 511.59 305.46 465.52 317.82 465.52 293.12"/></g></svg>