<svg id="Ebene_1" data-name="Ebene 1" xmlns="http://www.w3.org/2000/svg" viewBox="0 0 613.06 613.06"><defs><style>.cls-1{fill:#999;}.cls-2,.cls-3{fill:none;stroke:#000;}.cls-2{stroke-linecap:round;stroke-linejoin:round;stroke-width:1.06px;}.cls-3{stroke-miterlimit:10;stroke-width:4.25px;}</style></defs><title>zugmöglichkeiten läufer</title><rect class="cls-1" x="408.53" y="204.53" width="204" height="204"/><rect class="cls-1" x="204.53" y="408.53" width="204" height="204"/><rect class="cls-1" x="204.53" y="0.53" width="204" height="204"/><rect class="cls-1" x="0.53" y="204.53" width="204" height="204"/><polyline class="cls-2" points="0.53 204.53 0.53 0.53 204.53 0.53"/><polyline class="cls-2" points="204.53 204.53 204.53 0.53 408.53 0.53"/><polyline class="cls-2" points="408.53 204.53 408.53 0.53 612.53 0.53 612.53 204.53"/><polyline class="cls-2" points="0.53 408.53 0.53 204.53 204.53 204.53"/><polyline class="cls-2" points="204.53 408.53 204.53 204.53 408.53 204.53"/><polyline class="cls-2" points="408.53 408.53 408.53 204.53 612.53 204.53 612.53 408.53"/><polyline class="cls-2" points="204.53 612.53 0.53 612.53 0.53 408.53 204.53 408.53"/><polyline class="cls-2" points="408.53 612.53 204.53 612.53 204.53 408.53 408.53 408.53"/><rect class="cls-2" x="408.53" y="408.53" width="204" height="204"/><line class="cls-3" x1="435.21" y1="436.03" x2="378.8" y2="377.41"/><polygon points="438.27 421.4 461.32 463.15 420.47 438.52 438.27 421.4"/><line class="cls-3" x1="434.22" y1="182.56" x2="371.9" y2="234.85"/><polygon points="419.83 178.52 463.06 158.36 435.7 197.44 419.83 178.52"/><line class="cls-3" x1="181.03" y1="181.03" x2="238.56" y2="238.56"/><polygon points="178.26 195.72 154.4 154.42 195.72 178.26 178.26 195.72"/><line class="cls-3" x1="179.62" y1="429.4" x2="241.94" y2="377.11"/><polygon points="194.01 433.45 150.78 453.61 178.14 414.53 194.01 433.45"/><rect x="277.33" y="371.97" width="64.19" height="12.06"/><path d="M963.39,466c-2.48,0-6.07,2.38-9.64,6.47a.73.73,0,0,0-.17.5l.81,26.72c0,.85-2.28,1.39-2.41.55l-2-20.77a.6.6,0,0,0-1.11-.27,53.86,53.86,0,0,0-7.64,27.19,71.12,71.12,0,0,0,1.27,13.53l.08,4.56c0,.38,41.51.38,41.51,0l.08-4.56a71,71,0,0,0,1.27-13.53C985.5,484.08,969.81,466,963.39,466Z" transform="translate(-653.97 -232.97)"/><path d="M980.51,545.64c.34-3,2.75-11.2,3.9-16.41h-42c1.15,5.21,3.56,13.38,3.9,16.41,2.63,23.4-4.47,38.07-14.84,48.06v7.24h63.91V593.7C985,583.72,977.88,569,980.51,545.64Z" transform="translate(-653.97 -232.97)"/></svg>