<svg id="Dame_weiss" data-name="Dame weiss" xmlns="http://www.w3.org/2000/svg" viewBox="0 0 36.12 72.93"><title>Dame_weiss</title><path d="M698,615.69c-.19,1.51-.41,3.33-.6,4.86l-.33,2.66c-1.34,10.61,1.38,18.86,8.29,25.17v.72H673.55v-.72c6.92-6.31,9.63-14.55,8.29-25.17-.11-.85-.29-2.55-.48-4.36-.11-1.05-.22-2.12-.32-3.07l8.39.07h.05l8.49-.16m2.27-2-10.8.2-10.66-.09c.28,2.12.83,7.85,1.06,9.7,1.47,11.7-2.5,19-8.31,24v3.62h35.79v-3.62c-5.8-5-9.77-12.32-8.3-24,.23-1.86.93-7.69,1.21-9.81Z" transform="translate(-671.39 -588.07)"/><path d="M705.5,655.35V659H673.39v-3.65H705.5m2-2H671.39V661H707.5v-7.65Z" transform="translate(-671.39 -588.07)"/><path d="M689.45,593.13l.55.47,10.23,8.87-1.48,7.19h-18.6l-1.48-7.19,10.23-8.87.55-.47m1.86-5.06h-3.71v4l-11.12,9.63,2,9.93h21.86l2-9.93-11.12-9.63v-4Z" transform="translate(-671.39 -588.07)"/></svg>