<svg id="Läufer_weiss" data-name="Läufer weiss" xmlns="http://www.w3.org/2000/svg" viewBox="0 0 29.14 69.24"><title>Läufer_weiss</title><path d="M702,656v1.92H677.13V656H702m2.12-2.12H675V660h29.14v-6.17Z" transform="translate(-675.01 -590.76)"/><path d="M689.57,592.76c1.65.28,8,7,8,16.33a30.19,30.19,0,0,1-.54,5.76l0,.17v.36c-1.56,0-4.13,0-7.46,0s-5.9,0-7.46,0V615l0-.17a30.26,30.26,0,0,1-.54-5.76,21.33,21.33,0,0,1,.63-5.09l.23,2.49v.12a2.26,2.26,0,0,0,2.32,1.89,3,3,0,0,0,2.1-.85,2.26,2.26,0,0,0,.65-1.65l-.35-11.46a5.87,5.87,0,0,1,2.42-1.77m0-2c-1.13,0-2.76,1.08-4.37,2.94a.33.33,0,0,0-.08.23l.37,12.13c0,.25-.43.44-.75.44s-.32-.06-.34-.19l-.89-9.43a.29.29,0,0,0-.28-.26.26.26,0,0,0-.23.14,24.45,24.45,0,0,0-3.47,12.34,32.28,32.28,0,0,0,.58,6.14l0,2.07c0,.09,4.71.13,9.42.13s9.42,0,9.42-.13l0-2.07a32.23,32.23,0,0,0,.58-6.14c0-10.13-7.12-18.33-10-18.33Z" transform="translate(-675.01 -590.76)"/><path d="M696.57,621.47l-.19.75a41.34,41.34,0,0,0-1,4.48c-1.08,9.62,1.12,17.12,6.72,22.87V650h-25v-.45c5.6-5.75,7.8-13.25,6.72-22.87a41.53,41.53,0,0,0-1-4.47l-.19-.75h14m2.55-2H680c.52,2.37,1.61,6.07,1.77,7.45,1.19,10.62-2,17.28-6.73,21.82V652h29v-3.29c-4.71-4.53-7.93-11.19-6.73-21.82.15-1.38,1.25-5.08,1.77-7.45Z" transform="translate(-675.01 -590.76)"/></svg>