<svg id="Läufer_schwarz" data-name="Läufer schwarz" xmlns="http://www.w3.org/2000/svg" viewBox="0 0 29.43 69.24"><title>Läufer_schwarz</title><rect y="63.71" width="29.43" height="5.53"/><path d="M640.24,477.76c-1.14,0-2.78,1.09-4.42,3a.34.34,0,0,0-.08.23l.37,12.25c0,.39-1,.64-1.11.25l-.89-9.52a.27.27,0,0,0-.51-.12,24.69,24.69,0,0,0-3.5,12.47,32.61,32.61,0,0,0,.58,6.2l0,2.09c0,.17,19,.17,19,0l0-2.09a32.55,32.55,0,0,0,.58-6.21C650.38,486.05,643.18,477.76,640.24,477.76Z" transform="translate(-625.53 -477.76)"/><path d="M648.09,514.28c.16-1.39,1.26-5.14,1.79-7.53H630.6c.53,2.39,1.63,6.14,1.79,7.53,1.2,10.73-2,17.46-6.8,22v3.32h29.31v-3.32C650.14,531.74,646.89,525,648.09,514.28Z" transform="translate(-625.53 -477.76)"/></svg>