<svg id="Pferd_weiss" data-name="Pferd weiss" xmlns="http://www.w3.org/2000/svg" viewBox="0 0 40.87 62.83"><defs><style>.cls-1{fill:none;stroke:#000;stroke-miterlimit:10;stroke-width:2px;}</style></defs><title>Pferd_weiss</title><rect class="cls-1" x="3.31" y="54.61" width="36.51" height="7.22"/><path class="cls-1" d="M694.77,599.92c-1-.58-2.33-4.45-2.33-4.45l-3.19,5.14-2.53-4.74a24.17,24.17,0,0,0-2.94,5.78A31.69,31.69,0,0,1,681,604.2c-1.29,1.07-9.7,9.42-11.12,13.29-.7,1.91,3.2,5.38,4.75,5.22,2.87-.29,10.61-3.36,11.16-4.59.08-.18.33.17.18.3-9,7.74-13.82,25.41-13.82,25.41l36.51-.26c0-4.14-.11-8-.18-12.19-.08-5.44-.49-14.23-2.79-20.64C703.69,605,700.78,602.72,694.77,599.92Z" transform="translate(-668.82 -593.17)"/></svg>