<svg id="Ebene_1" data-name="Ebene 1" xmlns="http://www.w3.org/2000/svg" viewBox="0 0 801.04 801.04"><defs><style>.cls-1{fill:#fff;}.cls-2{fill:#999;}.cls-3{fill:none;stroke:#000;stroke-miterlimit:10;stroke-width:1.04px;}</style></defs><title>schachbrett_solo</title><rect class="cls-1" x="700.52" y="700.52" width="100" height="100"/><rect class="cls-2" x="700.52" y="600.52" width="100" height="100"/><rect class="cls-1" x="700.52" y="500.52" width="100" height="100"/><rect class="cls-2" x="700.52" y="400.52" width="100" height="100"/><rect class="cls-1" x="700.52" y="300.52" width="100" height="100"/><rect class="cls-2" x="700.52" y="200.52" width="100" height="100"/><rect class="cls-1" x="700.52" y="100.52" width="100" height="100"/><rect class="cls-2" x="700.52" y="0.52" width="100" height="100"/><rect class="cls-2" x="600.52" y="700.52" width="100" height="100"/><rect class="cls-1" x="600.52" y="600.52" width="100" height="100"/><rect class="cls-2" x="600.52" y="500.52" width="100" height="100"/><rect class="cls-1" x="600.52" y="400.52" width="100" height="100"/><rect class="cls-2" x="600.52" y="300.52" width="100" height="100"/><rect class="cls-1" x="600.52" y="200.52" width="100" height="100"/><rect class="cls-2" x="600.52" y="100.52" width="100" height="100"/><rect class="cls-1" x="600.52" y="0.52" width="100" height="100"/><rect class="cls-1" x="500.52" y="700.52" width="100" height="100"/><rect class="cls-2" x="500.52" y="600.52" width="100" height="100"/><rect class="cls-1" x="500.52" y="500.52" width="100" height="100"/><rect class="cls-2" x="500.52" y="400.52" width="100" height="100"/><rect class="cls-1" x="500.52" y="300.52" width="100" height="100"/><rect class="cls-2" x="500.52" y="200.52" width="100" height="100"/><rect class="cls-1" x="500.52" y="100.52" width="100" height="100"/><rect class="cls-2" x="500.52" y="0.52" width="100" height="100"/><rect class="cls-2" x="400.52" y="700.52" width="100" height="100"/><rect class="cls-1" x="400.52" y="600.52" width="100" height="100"/><rect class="cls-2" x="400.52" y="500.52" width="100" height="100"/><rect class="cls-1" x="400.52" y="400.52" width="100" height="100"/><rect class="cls-2" x="400.52" y="300.52" width="100" height="100"/><rect class="cls-1" x="400.52" y="200.52" width="100" height="100"/><rect class="cls-2" x="400.52" y="100.52" width="100" height="100"/><rect class="cls-1" x="400.52" y="0.52" width="100" height="100"/><rect class="cls-1" x="300.52" y="700.52" width="100" height="100"/><rect class="cls-2" x="300.52" y="600.52" width="100" height="100"/><rect class="cls-1" x="300.52" y="500.52" width="100" height="100"/><rect class="cls-2" x="300.52" y="400.52" width="100" height="100"/><rect class="cls-1" x="300.52" y="300.52" width="100" height="100"/><rect class="cls-2" x="300.52" y="200.52" width="100" height="100"/><rect class="cls-1" x="300.52" y="100.52" width="100" height="100"/><rect class="cls-2" x="300.52" y="0.52" width="100" height="100"/><rect class="cls-2" x="200.52" y="700.52" width="100" height="100"/><rect class="cls-1" x="200.52" y="600.52" width="100" height="100"/><rect class="cls-2" x="200.52" y="500.52" width="100" height="100"/><rect class="cls-1" x="200.52" y="400.52" width="100" height="100"/><rect class="cls-2" x="200.52" y="300.52" width="100" height="100"/><rect class="cls-1" x="200.52" y="200.52" width="100" height="100"/><rect class="cls-2" x="200.52" y="100.52" width="100" height="100"/><rect class="cls-1" x="200.52" y="0.52" width="100" height="100"/><rect class="cls-1" x="100.52" y="700.52" width="100" height="100"/><rect class="cls-2" x="100.52" y="600.52" width="100" height="100"/><rect class="cls-1" x="100.52" y="500.52" width="100" height="100"/><rect class="cls-2" x="100.52" y="400.52" width="100" height="100"/><rect class="cls-1" x="100.52" y="300.52" width="100" height="100"/><rect class="cls-2" x="100.52" y="200.52" width="100" height="100"/><rect class="cls-1" x="100.52" y="100.52" width="100" height="100"/><rect class="cls-2" x="100.52" y="0.52" width="100" height="100"/><rect class="cls-2" x="0.52" y="700.52" width="100" height="100"/><rect class="cls-1" x="0.52" y="600.52" width="100" height="100"/><rect class="cls-2" x="0.52" y="500.52" width="100" height="100"/><rect class="cls-1" x="0.52" y="400.52" width="100" height="100"/><rect class="cls-2" x="0.52" y="300.52" width="100" height="100"/><rect class="cls-1" x="0.52" y="200.52" width="100" height="100"/><rect class="cls-2" x="0.52" y="100.52" width="100" height="100"/><rect class="cls-1" x="0.52" y="0.52" width="100" height="100"/><polyline class="cls-3" points="0.52 100.52 0.52 0.52 100.52 0.52"/><polyline class="cls-3" points="100.52 100.52 100.52 0.52 200.52 0.52"/><polyline class="cls-3" points="200.52 100.52 200.52 0.52 300.52 0.52"/><polyline class="cls-3" points="300.52 100.52 300.52 0.52 400.52 0.52"/><polyline class="cls-3" points="400.52 100.52 400.52 0.52 500.52 0.52"/><polyline class="cls-3" points="500.52 100.52 500.52 0.52 600.52 0.52"/><polyline class="cls-3" points="600.52 100.52 600.52 0.52 700.52 0.52"/><polyline class="cls-3" points="700.52 100.52 700.52 0.52 800.52 0.52 800.52 100.52"/><polyline class="cls-3" points="0.52 200.52 0.52 100.52 100.52 100.52"/><polyline class="cls-3" points="100.52 200.52 100.52 100.52 200.52 100.52"/><polyline class="cls-3" points="200.52 200.52 200.52 100.52 300.52 100.52"/><polyline class="cls-3" points="300.52 200.52 300.52 100.52 400.52 100.52"/><polyline class="cls-3" points="400.52 200.52 400.52 100.52 500.52 100.52"/><polyline class="cls-3" points="500.52 200.52 500.52 100.52 600.52 100.52"/><polyline class="cls-3" points="600.52 200.52 600.52 100.52 700.52 100.52"/><polyline class="cls-3" points="700.52 200.52 700.52 100.52 800.52 100.52 800.52 200.52"/><polyline class="cls-3" points="0.52 300.52 0.52 200.52 100.52 200.52"/><polyline class="cls-3" points="100.52 300.52 100.52 200.52 200.52 200.52"/><polyline class="cls-3" points="200.52 300.52 200.52 200.52 300.52 200.52"/><polyline class="cls-3" points="300.52 300.52 300.52 200.52 400.52 200.52"/><polyline class="cls-3" points="400.52 300.52 400.52 200.52 500.52 200.52"/><polyline class="cls-3" points="500.52 300.52 500.52 200.52 600.52 200.52"/><polyline class="cls-3" points="600.52 300.52 600.52 200.52 700.52 200.52"/><polyline class="cls-3" points="700.52 300.52 700.52 200.52 800.52 200.52 800.52 300.52"/><polyline class="cls-3" points="0.52 400.52 0.52 300.52 100.52 300.52"/><polyline class="cls-3" points="100.52 400.52 100.52 300.52 200.52 300.52"/><polyline class="cls-3" points="200.52 400.52 200.52 300.52 300.52 300.52"/><polyline class="cls-3" points="300.52 400.52 300.52 300.52 400.52 300.52"/><polyline class="cls-3" points="400.52 400.52 400.52 300.52 500.52 300.52"/><polyline class="cls-3" points="500.52 400.52 500.52 300.52 600.52 300.52"/><polyline class="cls-3" points="600.52 400.52 600.52 300.52 700.52 300.52"/><polyline class="cls-3" points="700.52 400.52 700.52 300.52 800.52 300.52 800.52 400.52"/><polyline class="cls-3" points="0.52 500.52 0.52 400.52 100.52 400.52"/><polyline class="cls-3" points="100.52 500.52 100.52 400.52 200.52 400.52"/><polyline class="cls-3" points="200.52 500.52 200.52 400.52 300.52 400.52"/><polyline class="cls-3" points="300.52 500.52 300.52 400.52 400.52 400.52"/><polyline class="cls-3" points="400.52 500.52 400.52 400.52 500.52 400.52"/><polyline class="cls-3" points="500.52 500.52 500.52 400.52 600.52 400.52"/><polyline class="cls-3" points="600.52 500.52 600.52 400.52 700.52 400.52"/><polyline class="cls-3" points="700.52 500.52 700.52 400.52 800.52 400.52 800.52 500.52"/><polyline class="cls-3" points="0.52 600.52 0.52 500.52 100.52 500.52"/><polyline class="cls-3" points="100.52 600.52 100.52 500.52 200.52 500.52"/><polyline class="cls-3" points="200.52 600.52 200.52 500.52 300.52 500.52"/><polyline class="cls-3" points="300.52 600.52 300.52 500.52 400.52 500.52"/><polyline class="cls-3" points="400.52 600.52 400.52 500.52 500.52 500.52"/><polyline class="cls-3" points="500.52 600.52 500.52 500.52 600.52 500.52"/><polyline class="cls-3" points="600.52 600.52 600.52 500.52 700.52 500.52"/><polyline class="cls-3" points="700.52 600.52 700.52 500.52 800.52 500.52 800.52 600.52"/><polyline class="cls-3" points="0.52 700.52 0.52 600.52 100.52 600.52"/><polyline class="cls-3" points="100.52 700.52 100.52 600.52 200.52 600.52"/><polyline class="cls-3" points="200.52 700.52 200.52 600.52 300.52 600.52"/><polyline class="cls-3" points="300.52 700.52 300.52 600.52 400.52 600.52"/><polyline class="cls-3" points="400.52 700.52 400.52 600.52 500.52 600.52"/><polyline class="cls-3" points="500.52 700.52 500.52 600.52 600.52 600.52"/><polyline class="cls-3" points="600.52 700.52 600.52 600.52 700.52 600.52"/><polyline class="cls-3" points="700.52 700.52 700.52 600.52 800.52 600.52 800.52 700.52"/><polyline class="cls-3" points="100.52 800.52 0.52 800.52 0.52 700.52 100.52 700.52"/><polyline class="cls-3" points="200.52 800.52 100.52 800.52 100.52 700.52 200.52 700.52"/><polyline class="cls-3" points="300.52 800.52 200.52 800.52 200.52 700.52 300.52 700.52"/><polyline class="cls-3" points="400.52 800.52 300.52 800.52 300.52 700.52 400.52 700.52"/><polyline class="cls-3" points="500.52 800.52 400.52 800.52 400.52 700.52 500.52 700.52"/><polyline class="cls-3" points="600.52 800.52 500.52 800.52 500.52 700.52 600.52 700.52"/><polyline class="cls-3" points="700.52 800.52 600.52 800.52 600.52 700.52 700.52 700.52"/><rect class="cls-3" x="700.52" y="700.52" width="100" height="100"/></svg>

