<svg xmlns="http://www.w3.org/2000/svg" viewBox="0 0 957.5 957.5"><defs><style>.cls-1{fill:#999;}.cls-2,.cls-3,.cls-4,.cls-5,.cls-6{fill:none;stroke:#000;}.cls-2{stroke-linecap:round;stroke-linejoin:round;}.cls-3,.cls-4,.cls-5,.cls-6{stroke-miterlimit:10;}.cls-3{stroke-width:4.87px;}.cls-4{stroke-width:4.95px;}.cls-5{stroke-width:5px;}.cls-6{stroke-width:5px;}</style></defs><title>zugmöglichkeiten pferd</title><g id="Ebene_2" data-name="Ebene 2"><rect class="cls-1" x="765.7" y="574.4" width="191.3" height="191.3"/><rect class="cls-1" x="765.7" y="191.8" width="191.3" height="191.3"/><rect class="cls-1" x="574.4" y="765.7" width="191.3" height="191.3"/><rect class="cls-1" x="574.4" y="383.1" width="191.3" height="191.3"/><rect class="cls-1" x="574.4" y="0.5" width="191.3" height="191.3"/><rect class="cls-1" x="383.1" y="574.4" width="191.3" height="191.3"/><rect class="cls-1" x="383.1" y="191.8" width="191.3" height="191.3"/><rect class="cls-1" x="191.8" y="765.7" width="191.3" height="191.3"/><rect class="cls-1" x="191.8" y="383.1" width="191.3" height="191.3"/><rect class="cls-1" x="191.8" y="0.5" width="191.3" height="191.3"/><rect class="cls-1" x="0.5" y="574.4" width="191.3" height="191.3"/><rect class="cls-1" x="0.5" y="191.8" width="191.3" height="191.3"/><polyline class="cls-2" points="0.5 191.8 0.5 0.5 191.8 0.5"/><polyline class="cls-2" points="191.8 191.8 191.8 0.5 383.1 0.5"/><polyline class="cls-2" points="383.1 191.8 383.1 0.5 574.4 0.5"/><polyline class="cls-2" points="574.4 191.8 574.4 0.5 765.7 0.5"/><polyline class="cls-2" points="765.7 191.8 765.7 0.5 957 0.5 957 191.8"/><polyline class="cls-2" points="0.5 383.1 0.5 191.8 191.8 191.8"/><polyline class="cls-2" points="191.8 383.1 191.8 191.8 383.1 191.8"/><polyline class="cls-2" points="383.1 383.1 383.1 191.8 574.4 191.8"/><polyline class="cls-2" points="574.4 383.1 574.4 191.8 765.7 191.8"/><polyline class="cls-2" points="765.7 383.1 765.7 191.8 957 191.8 957 383.1"/><polyline class="cls-2" points="0.5 574.4 0.5 383.1 191.8 383.1"/><polyline class="cls-2" points="191.8 574.4 191.8 383.1 383.1 383.1"/><polyline class="cls-2" points="383.1 574.4 383.1 383.1 574.4 383.1"/><polyline class="cls-2" points="574.4 574.4 574.4 383.1 765.7 383.1"/><polyline class="cls-2" points="765.7 574.4 765.7 383.1 957 383.1 957 574.4"/><polyline class="cls-2" points="0.5 765.7 0.5 574.4 191.8 574.4"/><polyline class="cls-2" points="191.8 765.7 191.8 574.4 383.1 574.4"/><polyline class="cls-2" points="383.1 765.7 383.1 574.4 574.4 574.4"/><polyline class="cls-2" points="574.4 765.7 574.4 574.4 765.7 574.4"/><polyline class="cls-2" points="765.7 765.7 765.7 574.4 957 574.4 957 765.7"/><polyline class="cls-2" points="191.8 957 0.5 957 0.5 765.7 191.8 765.7"/><polyline class="cls-2" points="383.1 957 191.8 957 191.8 765.7 383.1 765.7"/><polyline class="cls-2" points="574.4 957 383.1 957 383.1 765.7 574.4 765.7"/><polyline class="cls-2" points="765.7 957 574.4 957 574.4 765.7 765.7 765.7"/><rect class="cls-2" x="765.7" y="765.7" width="191.3" height="191.3"/></g><g id="Ebene_1" data-name="Ebene 1"><rect x="440.94" y="527.14" width="80.18" height="15.86"/><path d="M544.64,509.24c-2.13-1.27-5.12-9.78-5.12-9.78l-7,11.28L527,500.34a53.09,53.09,0,0,0-6.46,12.7,69.58,69.58,0,0,1-6.06,5.61c-2.84,2.36-21.31,20.69-24.41,29.18-1.53,4.2,7,11.81,10.44,11.47,6.3-.63,23.31-7.37,24.5-10.07.18-.4.73.36.4.65-19.66,17-30.35,55.8-30.35,55.8l80.18-.56c0-9.09-.25-17.6-.39-26.77-.18-11.94-1.08-31.24-6.12-45.32C564.22,520.48,557.84,515.39,544.64,509.24Z" transform="translate(-54 -85)"/><line class="cls-3" x1="559" y1="479" x2="859" y2="479"/><line class="cls-4" x1="398" y1="478.5" x2="98" y2="478.5"/><line class="cls-5" x1="96.5" y1="331.8" x2="96.5" y2="626.2"/><polygon points="81.97 341.7 96.49 287.5 111.03 341.7 81.97 341.7"/><polygon points="81.97 616.3 96.49 670.5 111.03 616.3 81.97 616.3"/><line class="cls-5" x1="861.5" y1="331.8" x2="861.5" y2="626.2"/><polygon points="846.97 341.7 861.49 287.5 876.03 341.7 846.97 341.7"/><polygon points="846.97 616.3 861.49 670.5 876.03 616.3 846.97 616.3"/><line class="cls-6" x1="481.5" y1="396.25" x2="481.5" y2="96.25"/><line class="cls-5" x1="334.3" y1="95.5" x2="628.7" y2="95.5"/><polygon points="344.2 110.03 290 95.51 344.2 80.97 344.2 110.03"/><polygon points="618.8 110.03 673 95.51 618.8 80.97 618.8 110.03"/><line class="cls-6" x1="481.5" y1="563.75" x2="481.5" y2="863.75"/><line class="cls-5" x1="628.7" y1="864.5" x2="334.3" y2="864.5"/><polygon points="618.8 849.97 673 864.49 618.8 879.03 618.8 849.97"/><polygon points="344.2 849.97 290 864.49 344.2 879.03 344.2 849.97"/></g></svg>