<svg id="Ebene_1" data-name="Ebene 1" xmlns="http://www.w3.org/2000/svg" viewBox="0 0 613.06 613.06"><defs><style>.cls-1{fill:#999;}.cls-2,.cls-3{fill:none;stroke:#000;}.cls-2{stroke-linecap:round;stroke-linejoin:round;stroke-width:1.06px;}.cls-3{stroke-miterlimit:10;stroke-width:4.25px;}</style></defs><title>zugmöglichkeiten könig</title><rect class="cls-1" x="408.53" y="204.53" width="204" height="204"/><rect class="cls-1" x="204.53" y="408.53" width="204" height="204"/><rect class="cls-1" x="204.53" y="0.53" width="204" height="204"/><rect class="cls-1" x="0.53" y="204.53" width="204" height="204"/><polyline class="cls-2" points="0.53 204.53 0.53 0.53 204.53 0.53"/><polyline class="cls-2" points="204.53 204.53 204.53 0.53 408.53 0.53"/><polyline class="cls-2" points="408.53 204.53 408.53 0.53 612.53 0.53 612.53 204.53"/><polyline class="cls-2" points="0.53 408.53 0.53 204.53 204.53 204.53"/><polyline class="cls-2" points="204.53 408.53 204.53 204.53 408.53 204.53"/><polyline class="cls-2" points="408.53 408.53 408.53 204.53 612.53 204.53 612.53 408.53"/><polyline class="cls-2" points="204.53 612.53 0.53 612.53 0.53 408.53 204.53 408.53"/><polyline class="cls-2" points="408.53 612.53 204.53 612.53 204.53 408.53 408.53 408.53"/><rect class="cls-2" x="408.53" y="408.53" width="204" height="204"/><line class="cls-3" x1="307.59" y1="139.12" x2="307.59" y2="220.47"/><polygon points="295.25 147.54 307.58 101.47 319.94 147.54 295.25 147.54"/><line class="cls-3" x1="307.59" y1="471.82" x2="307.59" y2="390.47"/><polygon points="319.94 463.39 307.6 509.47 295.25 463.39 319.94 463.39"/><line class="cls-3" x1="141.25" y1="307.59" x2="222.59" y2="307.59"/><polygon points="149.67 319.94 103.59 307.6 149.67 295.25 149.67 319.94"/><line class="cls-3" x1="473.94" y1="307.59" x2="392.59" y2="307.59"/><polygon points="465.52 295.25 511.59 307.58 465.52 319.94 465.52 295.25"/><path d="M1001.89,590.45v7.69H919.53v-7.69c13.37-10.61,22.51-26.18,19.13-51-.55-3.94-1.81-16.12-2.45-20.62l24.52.19,24.85-.42c-.64,4.5-2.26,16.91-2.79,20.85C979.39,564.27,988.53,579.84,1001.89,590.45Z" transform="translate(-653.97 -232.97)"/><rect x="265.18" y="369.96" width="83.12" height="16.26"/><polygon points="336.6 247.5 331.89 281.36 281.58 281.36 276.88 247.5 302.47 247.5 302.47 239.78 295.45 239.78 295.45 231.24 302.47 231.24 302.47 225.64 311.01 225.64 311.01 231.24 318.02 231.24 318.02 239.78 311.01 239.78 311.01 247.5 336.6 247.5"/><line class="cls-3" x1="435.06" y1="435.06" x2="377.54" y2="377.54"/><polygon points="437.83 420.37 461.69 461.68 420.37 437.83 437.83 420.37"/><line class="cls-3" x1="434.22" y1="184.56" x2="371.9" y2="236.85"/><polygon points="419.83 180.52 463.06 160.36 435.7 199.44 419.83 180.52"/><line class="cls-3" x1="181.03" y1="181.03" x2="238.56" y2="238.56"/><polygon points="178.26 195.72 154.4 154.42 195.72 178.26 178.26 195.72"/><line class="cls-3" x1="177.62" y1="429.4" x2="239.94" y2="377.11"/><polygon points="192.01 433.45 148.78 453.61 176.14 414.53 192.01 433.45"/></svg>